<svg xmlns="http://www.w3.org/2000/svg" width="1600" height="900" viewBox="0 0 1600 900">
  <!-- Paper background -->
  <rect width="1600" height="900" fill="#F1EEE5"/>

  <!-- Outer frame -->
  <rect x="28" y="28" width="1544" height="844" fill="none" stroke="#1A1A1A" stroke-width="2"/>

  <!-- Masthead -->
  <line x1="28" y1="118" x2="1572" y2="118" stroke="#1A1A1A" stroke-width="1.5"/>
  <line x1="28" y1="122" x2="1572" y2="122" stroke="#1A1A1A" stroke-width="0.6"/>

  <text x="70" y="86" font-family="Georgia, 'Times New Roman', serif" font-size="22" letter-spacing="4" fill="#1A1A1A">MODUSENSUS <tspan font-size="13" fill="#9E2B25">LAB · NEST</tspan></text>
  <text x="1570" y="86" text-anchor="end" font-family="Georgia, serif" font-size="15" letter-spacing="2" fill="#55524A">VOL. 2026 · NO. 02</text>

  <!-- Left red spine -->
  <rect x="70" y="178" width="8" height="300" fill="#9E2B25"/>
  <text x="70" y="165" font-family="Helvetica, Arial, sans-serif" font-size="11" letter-spacing="3" fill="#9E2B25">WORKBENCH · AI · DIARY</text>

  <!-- Abstract data grid (right side) -->
  <g opacity="0.85">
    <g stroke="#C9C4B8" stroke-width="1">
      <line x1="1060" y1="160" x2="1530" y2="160"/>
      <line x1="1060" y1="240" x2="1530" y2="240"/>
      <line x1="1060" y1="320" x2="1530" y2="320"/>
      <line x1="1060" y1="400" x2="1530" y2="400"/>
    </g>
    <g fill="#9E2B25">
      <circle cx="1060" cy="160" r="6"/>
      <circle cx="1190" cy="240" r="4"/>
      <circle cx="1340" cy="160" r="5"/>
      <circle cx="1450" cy="320" r="4"/>
      <circle cx="1120" cy="400" r="5"/>
      <circle cx="1530" cy="240" r="6"/>
    </g>
    <g fill="#1A1A1A" opacity="0.5">
      <circle cx="1280" cy="320" r="3"/>
      <circle cx="1180" cy="160" r="3"/>
      <circle cx="1520" cy="400" r="3"/>
      <circle cx="1400" cy="240" r="3"/>
    </g>
    <text x="1060" y="150" font-family="Helvetica, Arial, sans-serif" font-size="11" letter-spacing="2" fill="#55524A">AGENT TOOL CALLS / DAY</text>
  </g>

  <!-- Headline -->
  <text x="70" y="470" font-family="Georgia, 'Times New Roman', serif" font-size="220" font-weight="bold" letter-spacing="6" fill="#1A1A1A">NEST</text>

  <!-- Rule under headline -->
  <line x1="76" y1="512" x2="640" y2="512" stroke="#9E2B25" stroke-width="3"/>

  <!-- Subtitle -->
  <text x="70" y="560" font-family="Helvetica, Arial, sans-serif" font-size="24" letter-spacing="2" fill="#1A1A1A">A CONVERSATION-DRIVEN</text>
  <text x="70" y="596" font-family="Helvetica, Arial, sans-serif" font-size="24" letter-spacing="2" fill="#1A1A1A">PERSONAL AI WORKSPACE</text>

  <!-- Description -->
  <text x="70" y="660" font-family="Helvetica, Arial, sans-serif" font-size="14" letter-spacing="1" fill="#55524A">CHAT TO MANAGE PROJECTS · TASKS · HABITS · WRITING</text>
  <text x="70" y="684" font-family="Helvetica, Arial, sans-serif" font-size="14" letter-spacing="1" fill="#55524A">REACT + FASTAPI + SQLITE · FUNCTION CALLING · MEMORY</text>

  <!-- Red issue block bottom-left -->
  <rect x="70" y="740" width="160" height="56" fill="#9E2B25"/>
  <text x="150" y="766" text-anchor="middle" font-family="Georgia, serif" font-size="20" font-weight="bold" fill="#F1EEE5">ISSUE 02</text>
  <text x="150" y="786" text-anchor="middle" font-family="Helvetica, Arial, sans-serif" font-size="10" letter-spacing="2" fill="#F1EEE5">2026 · EDITION</text>

  <!-- Bottom meta -->
  <text x="700" y="772" font-family="Helvetica, Arial, sans-serif" font-size="12" letter-spacing="2" fill="#55524A">DEVLOG V1 — FROM “WORKS” TO “USEFUL”</text>
  <text x="700" y="794" font-family="Helvetica, Arial, sans-serif" font-size="12" letter-spacing="2" fill="#55524A">DATA STAYS WITH YOU. DECISIONS STAY WITH YOU.</text>

  <!-- Bottom frame -->
  <line x1="28" y1="828" x2="1572" y2="828" stroke="#1A1A1A" stroke-width="1.5"/>
  <text x="70" y="852" font-family="Helvetica, Arial, sans-serif" font-size="11" letter-spacing="3" fill="#1A1A1A">MODUSENSUS.LAB</text>
  <text x="1570" y="852" text-anchor="end" font-family="Helvetica, Arial, sans-serif" font-size="11" letter-spacing="3" fill="#1A1A1A">GITHUB.COM/MODUSENSUS/NEST</text>
</svg>
